# xmcd CD database file generated by OrangeCD 5.2
#
# Track frame offsets:
#	150
#	16092
#	30105
#	43480
#	57517
#	68355
#	84855
#	99205
#	111405
#	127405
#	145817
#	158975
#	171227
#	185257
#
# Disc length: 2629 seconds
#
# Revision: 0
# Processed by: cddbd v1.5.1PL0 Copyright (c) Steve Scherf et al.
# Submitted via: OrangeCD 5.2
#
DISCID=b40a430e
DTITLE=Geirmundur Valtýsson - Í syngjandi sveiflu
DYEAR=1989
DGENRE=Country
TTITLE0=Vertu
TTITLE1=Í syngjandi sveiflu
TTITLE2=Litið skrjáf í skógi
TTITLE3=Eftir ballið
TTITLE4=Á þjóðlegu nótunum
TTITLE5=Ort í sandinn
TTITLE6=Litla lindin
TTITLE7=Ég er rokkari
TTITLE8=Sumarfri
TTITLE9=Ég syng þennan söng
TTITLE10=Alpawtist
TTITLE11=Látum sönginn hjlóma
TTITLE12=Lifsdansinn
TTITLE13=Með vaxandi þrá
EXTD=
EXTT0=
EXTT1=
EXTT2=
EXTT3=
EXTT4=
EXTT5=
EXTT6=
EXTT7=
EXTT8=
EXTT9=
EXTT10=
EXTT11=
EXTT12=
EXTT13=
PLAYORDER=
